<svg id="SvgjsSvg1008" xmlns="http://www.w3.org/2000/svg" version="1.1" xmlns:xlink="http://www.w3.org/1999/xlink" xmlns:svgjs="http://svgjs.com/svgjs" width="13" height="14"><defs id="SvgjsDefs1009"></defs><path id="SvgjsPath1010" d="M1017.09 1351.66C1017.5400000000001 1351.66 1018.74 1351.8100000000002 1019.48 1352.3400000000001C1020.4300000000001 1353.0300000000002 1021.02 1353.65 1021.02 1355.16C1021.02 1356.2 1020.03 1357.01 1018.97 1357.01C1017.9 1357.01 1016.76 1356.34 1016.33 1355.62C1017.58 1355.62 1018.36 1355.1299999999999 1018.36 1353.78C1018.36 1352.93 1017.73 1352.33 1017.09 1352.33C1017.09 1352.71 1016.84 1353.12 1016.35 1353.12C1016.52 1352.84 1016.63 1352.6 1016.63 1352.33C1016.17 1352.33 1015.64 1352.47 1015.26 1352.82C1015.64 1352.8999999999999 1015.95 1353.05 1015.95 1353.34C1015.95 1353.6899999999998 1015.5500000000001 1354.02 1015.11 1354.02C1014.65 1354.02 1014.29 1353.76 1014.29 1353.32C1014.29 1352.58 1015.26 1351.81 1016.63 1351.74L1016.63 1351.3700000000001C1016.16 1351.3700000000001 1015.78 1351.4 1015.49 1351.5200000000002C1015.28 1351.5900000000001 1015.09 1351.6600000000003 1014.9 1351.6600000000003C1014.64 1351.6600000000003 1013.6899999999999 1351.2900000000004 1013 1351.0000000000002C1013.69 1350.7100000000003 1014.64 1350.3400000000001 1014.9 1350.3400000000001C1015.09 1350.3400000000001 1015.28 1350.41 1015.49 1350.4800000000002C1015.78 1350.5900000000001 1016.16 1350.6300000000003 1016.63 1350.6300000000003L1016.63 1350.2600000000004C1015.26 1350.1900000000005 1014.29 1349.4200000000005 1014.29 1348.6800000000005C1014.29 1348.2400000000005 1014.65 1347.9800000000005 1015.11 1347.9800000000005C1015.5500000000001 1347.9800000000005 1015.95 1348.3100000000004 1015.95 1348.6600000000005C1015.95 1348.9500000000005 1015.6400000000001 1349.1000000000006 1015.26 1349.1800000000005C1015.64 1349.5300000000004 1016.17 1349.6700000000005 1016.63 1349.6700000000005C1016.63 1349.4000000000005 1016.52 1349.1600000000005 1016.35 1348.8800000000006C1016.84 1348.8800000000006 1017.09 1349.2900000000006 1017.09 1349.6700000000005C1017.73 1349.6700000000005 1018.36 1349.0700000000006 1018.36 1348.2200000000005C1018.36 1346.8700000000006 1017.58 1346.3800000000006 1016.33 1346.3800000000006C1016.76 1345.6600000000005 1017.9000000000001 1344.9900000000005 1018.97 1344.9900000000005C1020.03 1344.9900000000005 1021.02 1345.8000000000004 1021.02 1346.8400000000004C1021.02 1348.3500000000004 1020.43 1348.9700000000005 1019.48 1349.6500000000003C1018.74 1350.1900000000003 1017.54 1350.3400000000004 1017.09 1350.3400000000004L1017.09 1350.6300000000003C1018.1700000000001 1350.6300000000003 1019.25 1350.1500000000003 1020.1800000000001 1349.6700000000003C1020.6200000000001 1349.4500000000003 1021.1500000000001 1349.1900000000003 1021.6300000000001 1349.1900000000003C1022.2000000000002 1349.1900000000003 1022.8300000000002 1349.4500000000003 1023.5100000000001 1349.8200000000004C1024.17 1350.1700000000003 1025.16 1350.6700000000003 1026 1351.0000000000005C1025.16 1351.3300000000004 1024.17 1351.8300000000004 1023.51 1352.1800000000005C1022.83 1352.5500000000004 1022.2 1352.8100000000006 1021.63 1352.8100000000006C1021.15 1352.8100000000006 1020.62 1352.5500000000006 1020.18 1352.3300000000006C1019.25 1351.8500000000006 1018.17 1351.3700000000006 1017.0899999999999 1351.3700000000006Z " fill="#19140e" transform="matrix(1,0,0,1,-1013,-1344)"></path></svg>