<svg id="SvgjsSvg1000" xmlns="http://www.w3.org/2000/svg" version="1.1" xmlns:xlink="http://www.w3.org/1999/xlink" xmlns:svgjs="http://svgjs.com/svgjs" width="13" height="14"><defs id="SvgjsDefs1001"></defs><path id="SvgjsPath1007" d="M870.913 1351.66C870.457 1351.66 869.26 1351.8100000000002 868.519 1352.3400000000001C867.569 1353.0300000000002 866.98 1353.65 866.98 1355.16C866.98 1356.2 867.9680000000001 1357.01 869.032 1357.01C870.096 1357.01 871.236 1356.34 871.673 1355.62C870.419 1355.62 869.64 1355.1299999999999 869.64 1353.78C869.64 1352.93 870.2669999999999 1352.33 870.913 1352.33C870.913 1352.71 871.16 1353.12 871.654 1353.12C871.483 1352.84 871.369 1352.6 871.369 1352.33C871.825 1352.33 872.3570000000001 1352.47 872.7370000000001 1352.82C872.3570000000001 1352.8999999999999 872.0530000000001 1353.05 872.0530000000001 1353.34C872.0530000000001 1353.6899999999998 872.4520000000001 1354.02 872.8890000000001 1354.02C873.3450000000001 1354.02 873.7060000000001 1353.76 873.7060000000001 1353.32C873.7060000000001 1352.58 872.7370000000001 1351.81 871.3690000000001 1351.74L871.3690000000001 1351.3700000000001C871.8440000000002 1351.3700000000001 872.2240000000002 1351.4 872.5090000000001 1351.5200000000002C872.7180000000001 1351.5900000000001 872.9080000000001 1351.6600000000003 873.0980000000002 1351.6600000000003C873.3640000000001 1351.6600000000003 874.3140000000002 1351.2900000000004 874.9980000000002 1351.0000000000002C874.3140000000002 1350.7100000000003 873.3640000000001 1350.3400000000001 873.0980000000002 1350.3400000000001C872.9080000000001 1350.3400000000001 872.7180000000002 1350.41 872.5090000000001 1350.4800000000002C872.2240000000002 1350.5900000000001 871.8440000000002 1350.6300000000003 871.3690000000001 1350.6300000000003L871.3690000000001 1350.2600000000004C872.7370000000002 1350.1900000000005 873.7060000000001 1349.4200000000005 873.7060000000001 1348.6800000000005C873.7060000000001 1348.2400000000005 873.3450000000001 1347.9800000000005 872.8890000000001 1347.9800000000005C872.4520000000001 1347.9800000000005 872.0530000000001 1348.3100000000004 872.0530000000001 1348.6600000000005C872.0530000000001 1348.9500000000005 872.3570000000001 1349.1000000000006 872.7370000000001 1349.1800000000005C872.3570000000001 1349.5300000000004 871.825 1349.6700000000005 871.369 1349.6700000000005C871.369 1349.4000000000005 871.4830000000001 1349.1600000000005 871.654 1348.8800000000006C871.16 1348.8800000000006 870.913 1349.2900000000006 870.913 1349.6700000000005C870.267 1349.6700000000005 869.64 1349.0700000000006 869.64 1348.2200000000005C869.64 1346.8700000000006 870.419 1346.3800000000006 871.673 1346.3800000000006C871.236 1345.6600000000005 870.096 1344.9900000000005 869.032 1344.9900000000005C867.9680000000001 1344.9900000000005 866.98 1345.8000000000004 866.98 1346.8400000000004C866.98 1348.3500000000004 867.5690000000001 1348.9700000000005 868.519 1349.6500000000003C869.26 1350.1900000000003 870.457 1350.3400000000004 870.913 1350.3400000000004L870.913 1350.6300000000003C869.83 1350.6300000000003 868.747 1350.1500000000003 867.816 1349.6700000000003C867.379 1349.4500000000003 866.847 1349.1900000000003 866.3720000000001 1349.1900000000003C865.802 1349.1900000000003 865.1750000000001 1349.4500000000003 864.4910000000001 1349.8200000000004C863.8260000000001 1350.1700000000003 862.8380000000001 1350.6700000000003 862.0020000000001 1351.0000000000005C862.8380000000001 1351.3300000000004 863.826 1351.8300000000004 864.4910000000001 1352.1800000000005C865.1750000000001 1352.5500000000004 865.8020000000001 1352.8100000000006 866.3720000000001 1352.8100000000006C866.8470000000001 1352.8100000000006 867.379 1352.5500000000006 867.816 1352.3300000000006C868.7470000000001 1351.8500000000006 869.83 1351.3700000000006 870.913 1351.3700000000006Z " fill="#19140e" transform="matrix(1,0,0,1,-862,-1344)"></path></svg>